<svg width="12" height="12" viewBox="0 0 12 12" fill="none" xmlns="http://www.w3.org/2000/svg">
<g id="Heart_Outline">
<path id="Vector" d="M10.9738 1.78106C10.3592 1.16094 9.53399 0.794432 8.66181 0.754224C7.78963 0.714016 6.93419 1.00304 6.26512 1.56399C6.18816 1.62207 6.09546 1.65556 5.99914 1.66008C5.90224 1.65726 5.80876 1.62359 5.73231 1.56399C5.06354 1.00272 4.20817 0.713481 3.33602 0.753695C2.46387 0.793908 1.63874 1.16064 1.02446 1.78106C0.698616 2.10514 0.440289 2.49064 0.264441 2.91524C0.0885925 3.33984 -0.0012843 3.7951 1.38644e-05 4.25467C1.38644e-05 5.18903 0.363806 6.06762 1.00216 6.70426L4.83055 11.1856C4.97481 11.3548 5.15408 11.4907 5.35599 11.5839C5.5579 11.6771 5.77762 11.7254 6 11.7254C6.22238 11.7254 6.44211 11.6771 6.64401 11.5839C6.84592 11.4907 7.02519 11.3548 7.16945 11.1856L10.9747 6.72828C11.3006 6.40421 11.559 6.01874 11.735 5.59415C11.911 5.16956 12.0011 4.71429 12 4.25467C12.0007 3.79503 11.9104 3.33979 11.7343 2.91523C11.5582 2.49067 11.2997 2.1052 10.9738 1.78106ZM10.3543 6.15514L6.52596 10.6365C6.26255 10.9453 5.73574 10.9453 5.47233 10.6365L1.62163 6.13112C1.37455 5.88523 1.1787 5.59277 1.04542 5.27068C0.912133 4.94858 0.844061 4.60325 0.845143 4.25467C0.845143 3.54596 1.12056 2.8793 1.62163 2.37823C1.8679 2.13023 2.16076 1.93335 2.48338 1.79891C2.806 1.66448 3.152 1.59513 3.50151 1.59487C4.11523 1.59448 4.70956 1.8098 5.18061 2.2032C5.21579 2.23408 5.53068 2.50435 5.99914 2.50435C6.45474 2.50435 6.77649 2.23837 6.80566 2.21263C7.31288 1.78715 7.96153 1.56792 8.62287 1.59843C9.28421 1.62895 9.90991 1.90699 10.3758 2.37737C10.6238 2.62606 10.8201 2.92141 10.9534 3.24638C11.0867 3.57135 11.1543 3.91949 11.1523 4.27072C11.1503 4.62195 11.0788 4.96931 10.9418 5.29274C10.8048 5.61618 10.6052 5.90928 10.3543 6.15514Z" fill="#B2B2B2"/>
</g>
</svg>
